<svg xmlns="http://www.w3.org/2000/svg" viewBox="0 0 32 32"><path fill="#25D366" d="M19.11 17.54c-.27-.13-1.58-.78-1.82-.87-.24-.09-.42-.13-.6.14-.18.27-.69.87-.84 1.05-.15.18-.31.2-.58.07-.27-.13-1.12-.41-2.13-1.31-.79-.7-1.32-1.56-1.47-1.82-.15-.27-.02-.41.11-.54.12-.12.27-.31.41-.47.14-.16.18-.27.27-.45.09-.18.05-.34-.02-.47-.07-.13-.6-1.45-.82-1.99-.22-.53-.44-.45-.6-.46l-.51-.01c-.18 0-.47.07-.72.34-.24.27-.94.92-.94 2.25s.96 2.61 1.09 2.79c.13.18 1.88 2.87 4.57 4.02.64.28 1.14.45 1.53.57.64.2 1.22.17 1.68.1.51-.08 1.58-.64 1.8-1.26.22-.62.22-1.16.15-1.26-.06-.1-.24-.16-.5-.29z"/><path fill="#25D366" d="M26.64 5.36C23.83 2.55 20.06 1 16 1 7.16 1 0 8.16 0 17c0 2.79.73 5.49 2.12 7.88L1 31l6.27-1.64C9.57 30.87 12.73 31 16 31c8.84 0 16-7.16 16-16 0-4.06-1.55-7.83-4.36-10.64zM16 28.9c-3.02 0-5.84-.89-8.21-2.43l-.59-.38-3.72.97.99-3.63-.39-.59C2.54 20.46 1.9 18.78 1.9 17 1.9 9.21 8.21 2.9 16 2.9s14.1 6.31 14.1 14.1S23.79 28.9 16 28.9z"/></svg>

